<?xml version="1.0" encoding="UTF-8"?>
<svg width="171px" height="19px" viewBox="0 0 171 19" version="1.1" xmlns="http://www.w3.org/2000/svg" xmlns:xlink="http://www.w3.org/1999/xlink">
    <!-- Generator: Sketch 46.2 (44496) - http://www.bohemiancoding.com/sketch -->
    <title>Silicon Valley Insig</title>
    <desc>Created with Sketch.</desc>
    <defs></defs>
    <g id="Page-1" stroke="none" stroke-width="1" fill="none" fill-rule="evenodd">
        <path d="M6.8329567,15.6220289 C5.82689319,15.6220289 4.94827758,15.4912426 4.19708349,15.2296661 C3.44588941,14.9680896 2.8187859,14.6059122 2.31575415,14.143123 C1.81272239,13.6803338 1.4270705,13.1337141 1.1587869,12.5032477 C0.890503297,11.8727812 0.73624254,11.1953753 0.696,10.4710095 L2.46666292,10.4710095 C2.70811816,12.9392187 4.19036282,14.1733047 6.91344138,14.1733047 C7.40976604,14.1733047 7.86919482,14.1162953 8.29174149,14.0022748 C8.71428816,13.8882543 9.07646559,13.7205795 9.37828464,13.4992456 C9.68010369,13.2779116 9.91484832,12.996218 10.0825256,12.6541564 C10.2502028,12.3120948 10.3340402,11.919736 10.3340402,11.477068 C10.3340402,10.9807434 10.2300819,10.571617 10.0221621,10.2496767 C9.81424227,9.92773636 9.52248823,9.65945678 9.14689119,9.4448299 C8.77129415,9.23020302 8.31857236,9.0524678 7.78871225,8.91161891 C7.25885214,8.77077002 6.67199056,8.62656975 6.02810992,8.47901377 C5.39764346,8.34487197 4.7973679,8.18725772 4.22726525,8.00616628 C3.65716259,7.82507485 3.15749188,7.58697673 2.72823812,7.29186477 C2.29898436,6.99675281 1.9569279,6.62451489 1.70205848,6.17513986 C1.44718905,5.72576483 1.31975625,5.15902422 1.31975625,4.47490104 C1.31975625,3.88467711 1.43712857,3.35482495 1.67187672,2.88532865 C1.90662487,2.41583234 2.23862085,2.01676647 2.66787461,1.68811906 C3.09712837,1.35947165 3.61356656,1.10795954 4.21720466,0.933575204 C4.82084277,0.759190863 5.48483472,0.672 6.20920044,0.672 C7.10795051,0.672 7.88260779,0.782665326 8.53319552,1.0039993 C9.18378326,1.22533327 9.7236959,1.53050129 10.1529497,1.91951251 C10.5822034,2.30852373 10.9175529,2.78136649 11.1590081,3.33805496 C11.4004634,3.89474343 11.5681381,4.50172598 11.6620374,5.1590208 L9.95173797,5.1590208 C9.81759617,4.12612893 9.43194428,3.35482515 8.79477073,2.84508631 C8.15759717,2.33534746 7.30916301,2.08048187 6.24944278,2.08048187 C5.27020764,2.08048187 4.48548987,2.27833805 3.89526595,2.67405637 C3.30504203,3.06977468 3.00993449,3.64322227 3.00993449,4.39441636 C3.00993449,4.79684176 3.10383234,5.13554473 3.29163087,5.41053542 C3.47942939,5.68552611 3.74100197,5.92027074 4.07635648,6.11477635 C4.41171098,6.30928196 4.81077685,6.46689621 5.27356606,6.58762383 C5.73635527,6.70835145 6.23602599,6.82237028 6.77259319,6.92968372 C7.47013055,7.0772397 8.1408295,7.24156094 8.78471014,7.42265237 C9.42859078,7.6037438 9.99868489,7.8552559 10.4950095,8.17719622 C10.9913342,8.49913655 11.3870466,8.91832339 11.6821585,9.43476932 C11.9772705,9.95121525 12.1248243,10.6118537 12.1248243,11.4167045 C12.1248243,12.0874135 11.994038,12.6843356 11.7324615,13.2074886 C11.470885,13.7306416 11.105354,14.1699494 10.6358577,14.5254252 C10.1663614,14.880901 9.60968131,15.152534 8.96580067,15.3403326 C8.32192002,15.5281311 7.61097914,15.6220289 6.8329567,15.6220289 Z M13.9558507,4.93768793 L15.5856654,4.93768793 L15.5856654,15.3403326 L13.9558507,15.3403326 L13.9558507,4.93768793 Z M13.9558507,0.953696373 L15.5856654,0.953696373 L15.5856654,2.96581332 L13.9558507,2.96581332 L13.9558507,0.953696373 Z M17.8593576,0.953696373 L19.4891723,0.953696373 L19.4891723,15.3403326 L17.8593576,15.3403326 L17.8593576,0.953696373 Z M21.7628645,4.93768793 L23.3926792,4.93768793 L23.3926792,15.3403326 L21.7628645,15.3403326 L21.7628645,4.93768793 Z M21.7628645,0.953696373 L23.3926792,0.953696373 L23.3926792,2.96581332 L21.7628645,2.96581332 L21.7628645,0.953696373 Z M30.0527863,15.6220289 C29.2747639,15.6220289 28.577237,15.4778287 27.9601847,15.1894238 C27.3431324,14.9010189 26.8166337,14.50866 26.3806729,14.0123354 C25.944712,13.5160107 25.6093625,12.9358561 25.3746144,12.2718542 C25.1398662,11.6078523 25.0224939,10.9002649 25.0224939,10.1490708 C25.0224939,9.39787675 25.1398662,8.69028937 25.3746144,8.02628745 C25.6093625,7.36228554 25.944712,6.78213095 26.3806729,6.28580629 C26.8166337,5.78948163 27.3431324,5.39712275 27.9601847,5.10871788 C28.577237,4.820313 29.2747639,4.67611273 30.0527863,4.67611273 C31.2868909,4.67611273 32.2895858,5.00140172 33.0609011,5.65198945 C33.8322165,6.30257719 34.3117662,7.1845463 34.4995648,8.29792324 L32.8496289,8.29792324 C32.7289012,7.5869717 32.4304402,7.03029158 31.9542368,6.62786617 C31.4780334,6.22544077 30.8442229,6.02423109 30.0527863,6.02423109 C29.5028049,6.02423109 29.0165482,6.13154292 28.5940015,6.3461698 C28.1714548,6.56079668 27.8193379,6.85590422 27.5376401,7.23150126 C27.2559423,7.6070983 27.0446722,8.04305261 26.9038233,8.53937728 C26.7629744,9.03570194 26.692551,9.57226109 26.692551,10.1490708 C26.692551,10.7258806 26.7629744,11.2624397 26.9038233,11.7587644 C27.0446722,12.2550891 27.2559423,12.6876899 27.5376401,13.0565798 C27.8193379,13.4254698 28.1714548,13.7172238 28.5940015,13.9318507 C29.0165482,14.1464776 29.5028049,14.2537894 30.0527863,14.2537894 C30.8978797,14.2537894 31.5652251,14.0257518 32.0548427,13.5696697 C32.5444602,13.1135875 32.8228003,12.4831305 32.8898712,11.6782797 L34.4995648,11.6782797 C34.3922513,12.9392126 33.94959,13.9117261 33.1715676,14.5958493 C32.3935451,15.2799725 31.3539618,15.6220289 30.0527863,15.6220289 Z M40.4956733,15.6220289 C39.7176508,15.6220289 39.0201239,15.4778287 38.4030717,15.1894238 C37.7860194,14.9010189 37.2595207,14.50866 36.8235598,14.0123354 C36.387599,13.5160107 36.0522495,12.9358561 35.8175014,12.2718542 C35.5827532,11.6078523 35.4653809,10.9002649 35.4653809,10.1490708 C35.4653809,9.39787675 35.5827532,8.69028937 35.8175014,8.02628745 C36.0522495,7.36228554 36.387599,6.78213095 36.8235598,6.28580629 C37.2595207,5.78948163 37.7860194,5.39712275 38.4030717,5.10871788 C39.0201239,4.820313 39.7176508,4.67611273 40.4956733,4.67611273 C41.2736957,4.67611273 41.9712226,4.820313 42.5882749,5.10871788 C43.2053272,5.39712275 43.7318259,5.78948163 44.1677867,6.28580629 C44.6037476,6.78213095 44.9357435,7.36228554 45.1637846,8.02628745 C45.3918257,8.69028937 45.5058445,9.39787675 45.5058445,10.1490708 C45.5058445,10.9002649 45.3918257,11.6078523 45.1637846,12.2718542 C44.9357435,12.9358561 44.6037476,13.5160107 44.1677867,14.0123354 C43.7318259,14.50866 43.2053272,14.9010189 42.5882749,15.1894238 C41.9712226,15.4778287 41.2736957,15.6220289 40.4956733,15.6220289 Z M40.4956733,14.2537894 C41.0456547,14.2537894 41.5285579,14.1464776 41.9443975,13.9318507 C42.3602371,13.7172238 42.7090005,13.4254698 42.9906983,13.0565798 C43.2723961,12.6876899 43.4836662,12.2550891 43.6245151,11.7587644 C43.765364,11.2624397 43.8357874,10.7258806 43.8357874,10.1490708 C43.8357874,9.57226109 43.765364,9.03570194 43.6245151,8.53937728 C43.4836662,8.04305261 43.2723961,7.6070983 42.9906983,7.23150126 C42.7090005,6.85590422 42.3602371,6.56079668 41.9443975,6.3461698 C41.5285579,6.13154292 41.0456547,6.02423109 40.4956733,6.02423109 C39.9456919,6.02423109 39.4594352,6.13154292 39.0368885,6.3461698 C38.6143418,6.56079668 38.2622249,6.85590422 37.9805271,7.23150126 C37.6988293,7.6070983 37.4875591,8.04305261 37.3467103,8.53937728 C37.2058614,9.03570194 37.135438,9.57226109 37.135438,10.1490708 C37.135438,10.7258806 37.2058614,11.2624397 37.3467103,11.7587644 C37.4875591,12.2550891 37.6988293,12.6876899 37.9805271,13.0565798 C38.2622249,13.4254698 38.6143418,13.7172238 39.0368885,13.9318507 C39.4594352,14.1464776 39.9456919,14.2537894 40.4956733,14.2537894 Z M48.7654739,6.30592746 L48.8057163,6.30592746 C49.1813133,5.8096028 49.6340351,5.41724392 50.1638952,5.12883905 C50.6937553,4.84043417 51.3409798,4.6962339 52.1055881,4.6962339 C53.1921367,4.6962339 54.0472778,4.98128095 54.6710372,5.5513836 C55.2947966,6.12148626 55.6066716,6.94979945 55.6066716,8.03634804 L55.6066716,15.3403326 L53.9768568,15.3403326 L53.9768568,8.17719622 C53.9768568,7.49307304 53.7689402,6.96992787 53.3531006,6.607745 C52.937261,6.24556214 52.3604599,6.06447343 51.62268,6.06447343 C51.2068404,6.06447343 50.824542,6.13489682 50.4757734,6.27574571 C50.1270047,6.4165946 49.8251901,6.61109729 49.5703207,6.85925962 C49.3154513,7.10742195 49.1175951,7.40923648 48.9767462,7.76471225 C48.8358973,8.12018802 48.7654739,8.5125469 48.7654739,8.94180067 L48.7654739,15.3403326 L47.1356592,15.3403326 L47.1356592,4.93768793 L48.7654739,4.93768793 L48.7654739,6.30592746 Z M60.05345,0.953696373 L62.0052035,0.953696373 L65.5465293,11.6581585 C65.600186,11.8325429 65.6571954,12.0270456 65.7175593,12.2416725 C65.7779231,12.4562993 65.8416395,12.664216 65.9087104,12.8654287 L66.1099221,13.5897908 L66.1501644,13.5897908 L66.3513761,12.8654287 C66.418447,12.664216 66.4788099,12.4529459 66.5324666,12.2316119 C66.5861233,12.0102779 66.6464862,11.8191287 66.7135571,11.6581585 L70.2146406,0.953696373 L72.1060306,0.953696373 L67.055617,15.3403326 L65.0636212,15.3403326 L60.05345,0.953696373 Z M81.5831014,15.4409384 C80.5502095,15.4409384 79.9532875,14.9245002 79.7923173,13.8916084 L79.7721961,13.8916084 C79.611226,14.0928211 79.4234303,14.2906773 79.2088034,14.4851829 C78.9941765,14.6796885 78.7460179,14.8574237 78.4643201,15.0183939 C78.1826224,15.179364 77.8640404,15.3067968 77.5085646,15.4006961 C77.1530888,15.4945953 76.7540229,15.5415443 76.311355,15.5415443 C75.8150303,15.5415443 75.3522481,15.4845349 74.9229943,15.3705143 C74.4937405,15.2564938 74.1215026,15.0787586 73.8062694,14.8373033 C73.4910362,14.5958481 73.2428776,14.2940336 73.0617861,13.9318507 C72.8806947,13.5696678 72.7901503,13.1404205 72.7901503,12.6440959 C72.7901503,12.0270436 72.9041692,11.5240194 73.1322102,11.1350081 C73.3602513,10.7459969 73.6754798,10.4307684 74.0779052,10.1893132 C74.4803306,9.94785793 74.9598803,9.76341572 75.5165688,9.63598101 C76.0732573,9.5085463 76.6735328,9.39117399 77.3174135,9.28386055 C77.6795963,9.23020383 78.0149458,9.17319442 78.3234719,9.11283061 C78.6319981,9.0524668 78.8969242,8.97198292 79.1182581,8.87137657 C79.3395921,8.77077022 79.5106203,8.63663043 79.631348,8.46895318 C79.7520756,8.30127593 79.8124385,8.07659179 79.8124385,7.794894 C79.8124385,7.20467008 79.6112288,6.75194829 79.2088034,6.43671506 C78.806378,6.12148183 78.2295769,5.96386758 77.4783828,5.96386758 C76.6332895,5.96386758 75.9961255,6.14830979 75.5668717,6.51719974 C75.137618,6.88608969 74.9095803,7.46624428 74.882752,8.2576809 L73.3133007,8.2576809 C73.3267149,7.76135624 73.4206128,7.29522047 73.5949971,6.85925962 C73.7693815,6.42329877 74.0276005,6.05106086 74.3696621,5.74253471 C74.7117237,5.43400857 75.1409711,5.18920346 75.657417,5.00811203 C76.1738629,4.8270206 76.7741385,4.73647624 77.4582617,4.73647624 C78.008243,4.73647624 78.5179742,4.79348565 78.9874705,4.90750618 C79.4569668,5.02152671 79.8627397,5.20596892 80.2048013,5.46083834 C80.5468629,5.71570776 80.8151425,6.05441073 81.0096481,6.4769574 C81.2041537,6.89950407 81.301405,7.41929576 81.301405,8.03634804 L81.301405,12.9861557 C81.301405,13.4154095 81.3718284,13.7339915 81.5126773,13.9419113 C81.6535262,14.1498311 81.9519872,14.2001335 82.4080694,14.0928201 L82.4684329,14.0928201 L82.4684329,15.2799691 C82.3611194,15.3202116 82.2403936,15.3571 82.1062518,15.3906355 C81.97211,15.4241709 81.7977283,15.4409384 81.5831014,15.4409384 Z M76.673536,14.2940318 C77.2101032,14.2940318 77.6795925,14.2034874 78.0820179,14.022396 C78.4844433,13.8413045 78.8130858,13.6166204 79.0679552,13.3483368 C79.3228246,13.0800532 79.5139738,12.7815922 79.6414085,12.4529447 C79.7688433,12.1242973 79.8325597,11.8057153 79.8325597,11.4971892 L79.8325597,9.72652628 C79.5642761,9.90091062 79.2121591,10.0518179 78.7761983,10.1792526 C78.3402374,10.3066873 77.9009296,10.4106456 77.4582617,10.4911307 C77.0558363,10.5716158 76.6735379,10.6520997 76.311355,10.7325848 C75.9491721,10.8130698 75.6372971,10.9304421 75.3757206,11.0847052 C75.1141441,11.2389683 74.9062274,11.4368245 74.7519644,11.6782797 C74.5977013,11.919735 74.5205709,12.2282565 74.5205709,12.6038535 C74.5205709,12.9526222 74.5842873,13.2376692 74.711722,13.4590032 C74.8391567,13.6803372 75.003478,13.8513654 75.2046907,13.972093 C75.4059034,14.0928207 75.633941,14.176658 75.8888104,14.2236077 C76.1436799,14.2705573 76.4052524,14.2940318 76.673536,14.2940318 Z M83.7360665,0.953696373 L85.3658813,0.953696373 L85.3658813,15.3403326 L83.7360665,15.3403326 L83.7360665,0.953696373 Z M87.6999369,0.953696373 L89.3297517,0.953696373 L89.3297517,15.3403326 L87.6999369,15.3403326 L87.6999369,0.953696373 Z M96.0502223,15.6220289 C95.2587857,15.6220289 94.5511983,15.4778287 93.9274389,15.1894238 C93.3036795,14.9010189 92.7771809,14.50866 92.3479271,14.0123354 C91.9186733,13.5160107 91.5900308,12.9358561 91.3619898,12.2718542 C91.1339487,11.6078523 91.0199299,10.9002649 91.0199299,10.1490708 C91.0199299,9.39787675 91.1373022,8.69028937 91.3720504,8.02628745 C91.6067985,7.36228554 91.942148,6.78213095 92.3781088,6.28580629 C92.8140697,5.78948163 93.3338614,5.39712275 93.9374995,5.10871788 C94.5411376,4.820313 95.2118365,4.67611273 95.9496164,4.67611273 C96.7276389,4.67611273 97.4151053,4.820313 98.0120363,5.10871788 C98.6089673,5.39712275 99.108638,5.79954211 99.5110634,6.31598805 C99.9134888,6.83243398 100.218657,7.44947701 100.426577,8.16713564 C100.634496,8.88479427 100.738455,9.67286553 100.738455,10.5313731 L92.689987,10.5313731 C92.7168153,11.0545261 92.8107132,11.5441363 92.9716833,12.0002184 C93.1326535,12.4563006 93.3539842,12.8520129 93.6356819,13.1873674 C93.9173797,13.5227219 94.2594362,13.7842945 94.6618616,13.972093 C95.064287,14.1598916 95.5270693,14.2537894 96.0502223,14.2537894 C96.8148305,14.2537894 97.4385806,14.0760542 97.921491,13.7205784 C98.4044015,13.3651027 98.739751,12.831897 98.9275495,12.1209454 L100.517122,12.1209454 C100.275667,13.2477366 99.7659355,14.1129382 98.987913,14.7165763 C98.2098906,15.3202144 97.2306701,15.6220289 96.0502223,15.6220289 Z M95.9496164,5.96386758 C95.4667059,5.96386758 95.0374586,6.04770495 94.6618616,6.2153822 C94.2862645,6.38305945 93.9676825,6.61780408 93.706106,6.91962313 C93.4445295,7.22144218 93.2299059,7.57691262 93.0622286,7.98604511 C92.8945514,8.39517761 92.783886,8.83448541 92.7302293,9.30398172 L98.987913,9.30398172 C98.9342563,8.25767567 98.6492093,7.43942296 98.1327633,6.84919904 C97.6163174,6.25897511 96.888609,5.96386758 95.9496164,5.96386758 Z M103.656024,18.7810526 C103.347498,18.7810526 103.082572,18.7676386 102.861238,18.7408102 C102.639904,18.7139819 102.41522,18.6536189 102.187179,18.5597197 L102.187179,17.1109955 L102.267664,17.1109955 C102.374977,17.1780664 102.519177,17.2317223 102.700269,17.2719648 C102.88136,17.3122074 103.106044,17.3323283 103.374328,17.3323283 C103.723097,17.3323283 104.018204,17.248491 104.259659,17.0808137 C104.501115,16.9131365 104.722445,16.5744335 104.923658,16.0646947 L105.326081,15.038515 L101.261605,4.93768793 L103.032268,4.93768793 L105.487051,11.4167045 C105.567536,11.6447456 105.64802,11.8761367 105.728505,12.1108849 C105.80899,12.345633 105.882767,12.5636102 105.949838,12.7648229 C106.030323,13.0062781 106.110807,13.2343158 106.191292,13.4489426 L106.231534,13.4489426 C106.298605,13.2343158 106.372382,13.0062781 106.452867,12.7648229 C106.519938,12.5636102 106.593715,12.345633 106.6742,12.1108849 C106.754685,11.8761367 106.835169,11.6447456 106.915654,11.4167045 L109.289952,4.93768793 L111.020372,4.93768793 L106.573594,16.1854217 C106.358967,16.7219889 106.147697,17.1579432 105.939777,17.4932977 C105.731857,17.8286522 105.510527,18.0935783 105.275778,18.2880839 C105.04103,18.4825895 104.792872,18.6133758 104.531295,18.6804467 C104.269719,18.7475176 103.977965,18.7810526 103.656024,18.7810526 Z M115.648241,0.953696373 L117.459147,0.953696373 L117.459147,15.3403326 L115.648241,15.3403326 L115.648241,0.953696373 Z M121.583986,6.30592746 L121.624229,6.30592746 C121.999826,5.8096028 122.452548,5.41724392 122.982408,5.12883905 C123.512268,4.84043417 124.159492,4.6962339 124.924101,4.6962339 C126.010649,4.6962339 126.86579,4.98128095 127.48955,5.5513836 C128.113309,6.12148626 128.425184,6.94979945 128.425184,8.03634804 L128.425184,15.3403326 L126.795369,15.3403326 L126.795369,8.17719622 C126.795369,7.49307304 126.587453,6.96992787 126.171613,6.607745 C125.755773,6.24556214 125.178972,6.06447343 124.441192,6.06447343 C124.025353,6.06447343 123.643054,6.13489682 123.294286,6.27574571 C122.945517,6.4165946 122.643703,6.61109729 122.388833,6.85925962 C122.133964,7.10742195 121.936108,7.40923648 121.795259,7.76471225 C121.65441,8.12018802 121.583986,8.5125469 121.583986,8.94180067 L121.583986,15.3403326 L119.954172,15.3403326 L119.954172,4.93768793 L121.583986,4.93768793 L121.583986,6.30592746 Z M134.521898,15.6421501 C133.086581,15.6421501 131.979928,15.3235681 131.201905,14.6863946 C130.423883,14.049221 129.994636,13.1404239 129.914151,11.9599761 L131.584208,11.9599761 C131.637864,12.4160582 131.751883,12.7916496 131.926268,13.0867616 C132.100652,13.3818735 132.318629,13.6166182 132.580206,13.7910025 C132.841782,13.9653869 133.140243,14.0894662 133.475598,14.1632442 C133.810952,14.2370221 134.173129,14.2739106 134.562141,14.2739106 C135.420648,14.2739106 136.037691,14.1095893 136.413288,13.7809419 C136.788885,13.4522945 136.976681,13.0465217 136.976681,12.5636112 C136.976681,12.2684992 136.926379,12.0236941 136.825772,11.8291885 C136.725166,11.6346829 136.564198,11.4703616 136.342864,11.3362198 C136.12153,11.202078 135.839837,11.0880592 135.497775,10.99416 C135.155713,10.9002607 134.743234,10.7996559 134.260323,10.6923424 C133.750584,10.585029 133.260974,10.4710102 132.791478,10.3502825 C132.321981,10.2295549 131.909502,10.0585267 131.554026,9.83719271 C131.19855,9.61585874 130.913503,9.3241047 130.698876,8.96192184 C130.484249,8.59973897 130.376937,8.1369567 130.376937,7.57356114 C130.376937,6.70163944 130.695519,6.00746603 131.332693,5.4910201 C131.969867,4.97457416 132.898785,4.71635507 134.119475,4.71635507 C135.42065,4.71635507 136.396517,5.00475562 137.047105,5.58156536 C137.697693,6.1583751 138.083345,6.95650684 138.204072,7.97598453 L136.534015,7.97598453 C136.45353,7.29186135 136.218786,6.79219063 135.829774,6.4769574 C135.440763,6.16172417 134.857255,6.00410992 134.079233,6.00410992 C133.328039,6.00410992 132.791479,6.14831019 132.469539,6.43671506 C132.147599,6.72511993 131.986631,7.07723688 131.986631,7.49307646 C131.986631,7.77477424 132.046994,8.00616538 132.167722,8.18725681 C132.288449,8.36834824 132.469538,8.5192555 132.710993,8.63998312 C132.952448,8.76071074 133.247556,8.86131559 133.596325,8.94180067 C133.945093,9.02228575 134.340806,9.10947661 134.783474,9.20337587 C135.306627,9.31068931 135.79959,9.42806163 136.26238,9.55549634 C136.725169,9.68293105 137.134295,9.86401976 137.489771,10.0987679 C137.845247,10.3335161 138.123587,10.6386841 138.324799,11.0142811 C138.526012,11.3898782 138.626617,11.8794884 138.626617,12.4831265 C138.626617,13.0062795 138.526012,13.4657083 138.324799,13.8614266 C138.123587,14.2571449 137.841893,14.5857874 137.47971,14.8473639 C137.117527,15.1089404 136.684927,15.3067966 136.181895,15.4409384 C135.678863,15.5750802 135.125536,15.6421501 134.521898,15.6421501 Z M140.196068,4.93768793 L141.825883,4.93768793 L141.825883,15.3403326 L140.196068,15.3403326 L140.196068,4.93768793 Z M140.196068,0.953696373 L141.825883,0.953696373 L141.825883,2.96581332 L140.196068,2.96581332 L140.196068,0.953696373 Z M148.184172,18.8011737 C146.82934,18.8011737 145.779696,18.5463081 145.035209,18.0365693 C144.290722,17.5268304 143.871536,16.8225965 143.777636,15.9238465 L145.286724,15.9238465 C145.367209,16.5006562 145.662317,16.9097826 146.172056,17.1512378 C146.681794,17.3926931 147.339079,17.5134189 148.14393,17.5134189 C149.109751,17.5134189 149.84752,17.2954417 150.357259,16.8594809 C150.866998,16.42352 151.121863,15.7494676 151.121863,14.8373033 L151.121863,13.368458 L151.081621,13.368458 C150.69261,13.8647826 150.270069,14.2571415 149.813987,14.5455464 C149.357905,14.8339512 148.754276,14.9781515 148.003082,14.9781515 C147.332373,14.9781515 146.718683,14.8507187 146.161995,14.5958493 C145.605306,14.3409799 145.125757,13.9855094 144.723331,13.5294273 C144.320906,13.0733452 144.009031,12.530079 143.787697,11.8996126 C143.566363,11.2691461 143.455698,10.5783262 143.455698,9.82713212 C143.455698,9.02228132 143.57307,8.30127996 143.807818,7.6641064 C144.042566,7.02693285 144.364502,6.4870202 144.773634,6.04435226 C145.182767,5.60168432 145.655609,5.26633484 146.192177,5.03829378 C146.728744,4.81025272 147.298838,4.6962339 147.902476,4.6962339 C148.667084,4.6962339 149.300895,4.83372718 149.803927,5.10871788 C150.306958,5.38370857 150.732852,5.76936046 151.081621,6.26568512 L151.121863,6.26568512 L151.121863,4.93768793 L152.751678,4.93768793 L152.751678,14.7769398 C152.751678,15.461063 152.644366,16.0546316 152.429739,16.5576633 C152.215112,17.0606951 151.906591,17.4798819 151.504165,17.8152364 C151.10174,18.1505909 150.618837,18.3987495 150.055441,18.5597197 C149.492046,18.7206898 148.868296,18.8011737 148.184172,18.8011737 Z M148.083567,13.609912 C148.687205,13.609912 149.190229,13.5126606 149.592654,13.318155 C149.99508,13.1236494 150.317015,12.8520164 150.55847,12.5032477 C150.799926,12.154479 150.974307,11.7453526 151.081621,11.2758563 C151.188934,10.80636 151.24259,10.2966288 151.24259,9.74664745 C151.24259,8.60644214 150.991078,7.70770556 150.488046,7.05041073 C149.985015,6.39311591 149.176822,6.06447343 148.063445,6.06447343 C147.08421,6.06447343 146.349795,6.41323688 145.860177,7.11077424 C145.37056,7.80831161 145.125755,8.72046217 145.125755,9.84725329 C145.125755,10.9874586 145.377267,11.8996092 145.880299,12.5837323 C146.38333,13.2678555 147.117746,13.609912 148.083567,13.609912 Z M156.594821,6.30592746 L156.635064,6.30592746 C157.010661,5.8096028 157.463382,5.41724392 157.993243,5.12883905 C158.523103,4.84043417 159.170327,4.6962339 159.934935,4.6962339 C161.021484,4.6962339 161.876625,4.98128095 162.500385,5.5513836 C163.124144,6.12148626 163.436019,6.94979945 163.436019,8.03634804 L163.436019,15.3403326 L161.806204,15.3403326 L161.806204,8.17719622 C161.806204,7.49307304 161.598288,6.96992787 161.182448,6.607745 C160.766608,6.24556214 160.189807,6.06447343 159.452027,6.06447343 C159.036188,6.06447343 158.653889,6.13489682 158.305121,6.27574571 C157.956352,6.4165946 157.654538,6.61109729 157.399668,6.85925962 C157.144799,7.10742195 156.946942,7.40923648 156.806094,7.76471225 C156.665245,8.12018802 156.594821,8.5125469 156.594821,8.94180067 L156.594821,15.3403326 L154.965007,15.3403326 L154.965007,0.953696373 L156.594821,0.953696373 L156.594821,6.30592746 Z M164.924985,4.93768793 L166.434073,4.93768793 L166.434073,1.65793731 L168.063888,1.65793731 L168.063888,4.93768793 L170.076005,4.93768793 L170.076005,6.26568512 L168.063888,6.26568512 L168.063888,13.0263981 C168.063888,13.3885809 168.154432,13.640093 168.335524,13.7809419 C168.516615,13.9217908 168.774834,13.9922142 169.110189,13.9922142 C169.271159,13.9922142 169.432127,13.9754467 169.593097,13.9419113 C169.754067,13.9083758 169.8815,13.8781944 169.975399,13.851366 L170.035763,13.851366 L170.035763,15.2598479 C169.847964,15.3000904 169.643401,15.3336254 169.422067,15.3604537 C169.200733,15.3872821 168.969342,15.4006961 168.727887,15.4006961 C168.057178,15.4006961 167.507204,15.2497888 167.077951,14.9479698 C166.648697,14.6461507 166.434073,14.126359 166.434073,13.3885791 L166.434073,6.26568512 L164.924985,6.26568512 L164.924985,4.93768793 Z" id="Silicon-Valley-Insig" fill="#FFFFFF"></path>
    </g>
</svg>